<svg viewBox="0 0 400 400" xmlns="http://www.w3.org/2000/svg" role="img" aria-label="Dance Your Foot logo">
  <defs>
    <clipPath id="circle-clip"><circle cx="200" cy="200" r="195"></circle></clipPath>
  </defs>
  <g clip-path="url(#circle-clip)">
    
    <rect x="0" y="0" width="200" height="200" fill="#C41E3A"></rect>
    <rect x="200" y="0" width="200" height="200" fill="#E86A17"></rect>
    <rect x="0" y="200" width="200" height="200" fill="#C41E3A"></rect>
    <rect x="200" y="200" width="200" height="200" fill="#F5B731"></rect>

    
    <g fill="#6B1D3A">
      
      <circle cx="215" cy="98" r="22"></circle>
      
      <path d="M205 118 C 188 130 178 158 188 188 C 195 210 200 220 192 240 L 208 244 C 218 224 220 210 215 192 C 232 196 248 188 254 174 C 260 158 252 138 240 128 C 232 122 222 118 215 118 Z"></path>
      
      <path d="M252 132 C 270 122 290 108 304 92 C 312 84 322 86 320 96 C 318 110 296 138 274 152 C 264 158 254 158 248 152 Z"></path>
      
      <path d="M198 140 C 178 150 158 168 142 182 C 134 188 130 200 140 204 C 154 208 188 196 208 178 C 214 172 212 160 204 152 Z"></path>
      
      <path d="M200 232 C 196 252 198 278 208 304 C 214 320 220 332 232 340 L 252 332 C 244 312 236 292 232 272 C 228 256 230 244 234 236 Z"></path>
      
      <path d="M188 234 C 180 252 162 274 138 290 C 122 300 108 308 100 318 C 96 324 100 332 110 330 C 134 326 172 308 196 286 C 208 274 214 260 212 246 Z"></path>
      
      <ellipse cx="102" cy="324" rx="18" ry="10" transform="rotate(-15 102 324)"></ellipse>
      
      <ellipse cx="244" cy="338" rx="22" ry="11"></ellipse>

      
      <circle cx="78" cy="332" r="26" fill="#6B1D3A"></circle>
      <g stroke="#1A0A12" stroke-width="2" fill="none" opacity="0.55">
        <polygon points="78,318 90,326 86,340 70,340 66,326" stroke-linejoin="round"></polygon>
        <path d="M66 326 L 56 322"></path>
        <path d="M90 326 L 100 322"></path>
        <path d="M70 340 L 66 352"></path>
        <path d="M86 340 L 92 352"></path>
      </g>
    </g>
  </g>
  <circle cx="200" cy="200" r="193" fill="none" stroke="#1A0A12" stroke-width="6"></circle>
</svg>